<?xml version="1.0" standalone="no"?>
<!DOCTYPE svg PUBLIC "-//W3C//DTD SVG 20010904//EN"
 "http://www.w3.org/TR/2001/REC-SVG-20010904/DTD/svg10.dtd">
<svg version="1.0" xmlns="http://www.w3.org/2000/svg"
 width="870.000000pt" height="870.000000pt" viewBox="0 0 870.000000 870.000000"
 preserveAspectRatio="xMidYMid meet">
<metadata>
Created by potrace 1.14, written by Peter Selinger 2001-2017
</metadata>
<g transform="translate(0.000000,870.000000) scale(0.100000,-0.100000)"
fill="#000000" stroke="none">
<path d="M4108 8694 c-2 -1 -42 -5 -88 -8 -47 -3 -107 -8 -135 -12 -27 -3 -61
-7 -75 -8 -30 -4 -115 -16 -150 -22 -14 -2 -54 -9 -90 -15 -76 -12 -216 -43
-315 -71 -38 -10 -77 -21 -85 -23 -8 -1 -42 -11 -75 -21 -33 -10 -62 -19 -65
-19 -3 -1 -12 -4 -20 -7 -8 -3 -44 -16 -80 -28 -209 -71 -572 -236 -724 -328
-37 -23 -70 -42 -72 -42 -2 0 -44 -26 -92 -57 -48 -32 -94 -62 -103 -68 -44
-27 -105 -69 -109 -74 -3 -3 -24 -19 -48 -35 -23 -16 -53 -39 -67 -52 -14 -13
-25 -20 -25 -16 0 4 -6 0 -13 -8 -7 -8 -34 -33 -62 -55 -27 -22 -55 -44 -61
-50 -6 -5 -35 -30 -65 -55 -56 -47 -326 -314 -369 -365 -14 -17 -53 -64 -88
-105 -106 -125 -206 -256 -215 -282 -4 -10 -11 -18 -17 -18 -5 0 -10 -5 -10
-10 0 -6 -11 -23 -25 -38 -14 -15 -25 -31 -25 -35 0 -5 -10 -23 -23 -40 -24
-35 -29 -43 -86 -137 -76 -127 -92 -157 -165 -305 -116 -236 -148 -313 -221
-525 -43 -126 -103 -329 -111 -378 -3 -15 -9 -43 -14 -62 -5 -19 -11 -46 -14
-60 -3 -14 -7 -36 -10 -50 -3 -14 -8 -38 -11 -55 -27 -161 -33 -202 -51 -343
-26 -212 -25 -801 2 -937 2 -11 6 -40 9 -65 5 -43 12 -95 21 -152 13 -90 53
-288 59 -297 2 -4 7 -23 10 -42 8 -47 55 -220 65 -239 4 -9 11 -31 15 -50 4
-19 10 -39 14 -45 3 -5 6 -12 6 -15 4 -24 76 -221 105 -287 6 -13 14 -33 19
-45 41 -100 193 -397 256 -503 83 -139 201 -315 219 -327 6 -5 7 -8 1 -8 -7 0
-7 -3 0 -8 6 -4 35 -40 64 -79 30 -40 59 -73 63 -73 4 0 8 -6 8 -12 0 -7 19
-33 43 -58 23 -26 60 -68 82 -95 63 -79 414 -425 431 -425 2 0 19 -16 38 -35
20 -19 38 -35 42 -35 3 0 16 -9 28 -20 38 -34 129 -105 195 -151 35 -24 89
-61 119 -81 30 -21 58 -38 63 -38 5 0 9 -3 9 -8 0 -4 9 -12 19 -17 11 -6 73
-41 138 -79 104 -61 383 -206 397 -206 2 0 39 -16 80 -35 42 -19 82 -35 89
-35 7 0 17 -4 22 -9 12 -10 248 -93 350 -122 121 -35 219 -61 245 -65 14 -2
37 -7 52 -10 15 -3 29 -5 30 -4 2 1 15 -3 29 -8 14 -6 50 -13 80 -17 30 -4 57
-9 60 -11 4 -2 24 -6 45 -9 22 -3 50 -8 64 -10 14 -2 52 -7 85 -10 33 -4 71
-8 85 -11 116 -18 622 -26 805 -11 139 11 309 34 430 57 28 5 66 12 85 15 19
3 105 23 190 45 85 22 164 42 174 45 39 9 272 88 311 105 22 10 67 28 100 40
33 13 85 34 115 48 112 50 366 178 390 197 8 7 35 23 60 36 25 13 59 34 76 46
17 13 34 23 37 23 20 0 355 244 472 345 39 33 81 69 95 80 47 39 317 311 375
380 33 38 71 81 83 95 13 14 35 42 49 63 14 20 30 37 34 37 5 0 9 6 9 14 0 8
4 16 8 18 5 2 36 41 70 88 34 47 65 90 70 96 5 5 15 21 22 35 7 13 16 26 20
29 3 3 38 57 76 120 38 63 74 118 79 122 6 4 7 8 2 8 -4 0 4 19 19 41 14 23
34 60 45 83 10 22 23 48 29 56 20 29 120 251 120 265 0 8 5 15 10 15 6 0 10 7
10 15 0 8 15 52 34 97 31 76 93 253 101 288 2 8 18 62 35 120 16 58 32 116 35
129 2 13 13 64 24 115 28 128 52 254 57 301 3 37 7 62 19 155 26 190 26 796 0
928 -1 10 -6 47 -9 83 -6 63 -8 77 -21 144 -2 17 -10 59 -16 95 -17 101 -75
346 -104 440 -14 47 -27 92 -30 100 -2 8 -12 40 -23 70 -10 30 -27 78 -36 105
-9 28 -23 61 -30 75 -8 14 -15 30 -16 35 -7 30 -81 208 -90 215 -4 3 -10 18
-14 35 -4 16 -11 32 -14 35 -4 3 -29 48 -55 100 -65 129 -118 224 -128 230 -4
3 -13 17 -19 30 -14 32 -23 46 -95 154 -33 49 -64 96 -70 105 -20 30 -125 171
-140 187 -5 6 -19 23 -30 38 -11 15 -29 38 -40 50 -11 12 -45 51 -75 86 -75
87 -309 321 -395 395 -39 33 -72 62 -75 65 -6 6 -109 91 -125 102 -5 4 -23 18
-40 31 -32 26 -199 144 -231 164 -10 7 -55 36 -99 64 -44 28 -87 54 -95 59
-388 226 -810 394 -1245 493 -110 25 -135 31 -210 43 -63 10 -67 10 -130 19
-33 4 -67 9 -75 10 -8 2 -44 6 -80 9 -36 4 -87 9 -115 12 -55 6 -582 13 -587
8z"/>
</g>
</svg>
